HIERARCHY
ROOT root
{
	OFFSET 0.000000 0.000000 0.000000
	CHANNELS 6 Xposition Yposition Zposition Zrotation Yrotation Xrotation
	JOINT lhip
	{
		OFFSET 0.058581 -0.082280 -0.017664
		CHANNELS 3 Zrotation Yrotation Xrotation
		JOINT lknee
		{
			OFFSET 0.043451 -0.386469 0.008037
			CHANNELS 3 Zrotation Yrotation Xrotation
			JOINT lankle
			{
				OFFSET -0.014790 -0.426874 -0.037428
				CHANNELS 3 Zrotation Yrotation Xrotation
				JOINT ltoe
				{
					OFFSET 0.041054 -0.060286 0.122042
					CHANNELS 3 Zrotation Yrotation Xrotation
					End Site
					{
						OFFSET 0.000000 0.000000 0.000000
					}
				}
			}
		}
	}
	JOINT rhip
	{
		OFFSET -0.060310 -0.090513 -0.013543
		CHANNELS 3 Zrotation Yrotation Xrotation
		JOINT rknee
		{
			OFFSET -0.043257 -0.383688 -0.004843
			CHANNELS 3 Zrotation Yrotation Xrotation
			JOINT rankle
			{
				OFFSET 0.019056 -0.420046 -0.034562
				CHANNELS 3 Zrotation Yrotation Xrotation
				JOINT rtoe
				{
					OFFSET -0.034840 -0.062106 0.130323
					CHANNELS 3 Zrotation Yrotation Xrotation
					End Site
					{
						OFFSET 0.000000 0.000000 0.000000
					}
				}
			}
		}
	}
	JOINT lowerback
	{
		OFFSET 0.004439 0.124404 -0.038385
		CHANNELS 3 Zrotation Yrotation Xrotation
		JOINT upperback
		{
			OFFSET 0.004488 0.137956 0.026820
			CHANNELS 3 Zrotation Yrotation Xrotation
			JOINT chest
			{
				OFFSET -0.002265 0.056032 0.002855
				CHANNELS 3 Zrotation Yrotation Xrotation
				JOINT lowerneck
				{
					OFFSET -0.013390 0.211636 -0.033468
					CHANNELS 3 Zrotation Yrotation Xrotation
					JOINT upperneck
					{
						OFFSET 0.010113 0.088937 0.050410
						CHANNELS 3 Zrotation Yrotation Xrotation
						End Site
						{
							OFFSET 0.000000 0.000000 0.000000
						}
					}
				}
				JOINT lclavicle
				{
					OFFSET 0.071702 0.114000 -0.018898
					CHANNELS 3 Zrotation Yrotation Xrotation
					JOINT lshoulder
					{
						OFFSET 0.122921 0.045205 -0.019046
						CHANNELS 3 Zrotation Yrotation Xrotation
						JOINT lelbow
						{
							OFFSET 0.255332 -0.015649 -0.022946
							CHANNELS 3 Zrotation Yrotation Xrotation
							JOINT lwrist
							{
								OFFSET 0.265709 0.012698 -0.007375
								CHANNELS 3 Zrotation Yrotation Xrotation
								End Site
								{
									OFFSET 0.000000 0.000000 0.000000
								}
							}
						}
					}
				}
				JOINT rclavicle
				{
					OFFSET -0.082954 0.112472 -0.023707
					CHANNELS 3 Zrotation Yrotation Xrotation
					JOINT rshoulder
					{
						OFFSET -0.113228 0.046853 -0.008472
						CHANNELS 3 Zrotation Yrotation Xrotation
						JOINT relbow
						{
							OFFSET -0.260127 -0.014369 -0.031269
							CHANNELS 3 Zrotation Yrotation Xrotation
							JOINT rwrist
							{
								OFFSET -0.269108 0.006794 -0.006027
								CHANNELS 3 Zrotation Yrotation Xrotation
								End Site
								{
									OFFSET 0.000000 0.000000 0.000000
								}
							}
						}
					}
				}
			}
		}
	}
}
MOTION
Frames: 11
Frame Time: 0.033333
-0.855005 1.880616 0.977043 49.477564 4.080215 85.087123 10.708830 7.849809 8.956557 -4.583284 5.012793 10.062352 1.098144 8.224743 -19.876316 0.000000 -0.000000 0.000000 -6.837688 -8.016865 -5.786372 0.988243 -9.194148 10.156523 2.620617 -2.962645 -5.521491 0.000000 -0.000000 0.000000 -4.486953 0.981077 3.122615 4.736084 -4.434129 10.159348 3.276258 -1.680959 2.470340 4.295142 -17.216787 2.117179 8.250457 -23.042491 -4.043374 -23.598591 2.938742 4.720734 -66.867461 -9.433688 13.105858 7.066749 -25.195374 12.669964 -0.418666 -2.521662 -13.569321 24.794431 0.154625 -0.007790 61.873902 10.869181 9.942671 -12.902164 25.382059 -3.072304 14.538603 0.385703 -12.454107 
-0.855801 1.881129 0.975976 49.503398 4.140771 85.208044 10.705279 7.696020 8.477042 -4.746387 4.507597 10.602473 1.272396 8.711712 -20.384782 0.000000 -0.000000 0.000000 -6.984271 -7.892334 -6.809544 1.272016 -8.858344 11.698028 2.920671 -3.544785 -6.303123 0.000000 -0.000000 0.000000 -4.522193 0.378982 3.295880 4.305283 -4.330339 9.406902 3.522349 -1.684982 3.078381 4.327472 -16.398929 1.660262 7.422826 -22.544160 -2.605737 -22.965216 2.790028 4.899033 -67.354176 -9.727935 13.304884 7.100402 -25.271961 12.953976 1.148088 -2.160189 -14.251313 24.777761 0.845138 0.362323 62.065136 11.420611 10.319864 -12.739262 24.642024 -3.278168 13.814501 0.665355 -13.246173 
-0.856923 1.881786 0.975472 49.632084 4.158580 85.145299 10.696793 7.456892 7.872918 -4.846066 4.278981 11.750773 1.524252 8.807335 -21.063851 0.000000 -0.000000 0.000000 -7.213273 -7.722814 -7.771113 1.488595 -8.989902 13.686120 2.710259 -3.745947 -7.373234 0.000000 -0.000000 0.000000 -4.820065 0.181623 3.886749 4.423669 -4.351621 9.012062 3.682404 -1.714303 3.107318 4.451534 -15.096100 1.097165 6.366819 -21.797818 -1.485302 -22.887449 2.593040 4.999981 -67.196953 -9.950943 13.432931 6.745923 -25.805200 13.323960 -0.490079 -3.360710 -14.862543 25.179751 1.229137 0.649730 61.714532 11.986820 10.596959 -12.896392 24.517480 -3.626821 14.514923 0.822976 -13.533099 
-0.858018 1.883209 0.974064 50.339169 4.014820 85.354659 10.532950 6.895972 6.699499 -5.234785 3.753954 13.178300 2.158716 8.985323 -21.770667 0.000000 -0.000000 0.000000 -7.890385 -7.461355 -9.494869 1.930286 -9.247339 16.764239 2.594587 -4.392839 -9.010615 0.000000 -0.000000 0.000000 -5.257758 0.162333 4.721420 4.670838 -4.221045 8.152386 3.817437 -1.944815 3.178844 4.518481 -12.856307 0.252711 4.663865 -20.232494 0.241523 -22.979589 2.294525 4.982511 -66.708178 -10.411887 13.925799 6.025614 -26.376716 13.200147 -0.293499 -3.894380 -16.222158 25.886460 1.260259 0.666108 60.909948 12.588116 11.109164 -12.981312 24.659240 -4.680160 14.106445 1.003388 -14.257458 
-0.857997 1.882264 0.973020 50.844604 3.980022 85.128737 10.780603 6.969044 6.528397 -5.698346 2.888340 13.989028 2.507358 9.164464 -22.302335 0.000000 -0.000000 0.000000 -8.128189 -7.621595 -9.937891 2.039218 -9.274717 18.499604 2.354537 -4.628290 -10.160250 0.000000 -0.000000 0.000000 -5.547182 0.361262 5.362960 4.826687 -4.098346 7.907874 3.915046 -1.989644 3.306146 4.705230 -11.378445 -0.065855 4.701370 -19.107593 0.808860 -22.582155 1.898627 4.726054 -66.736344 -10.366440 13.962423 6.012037 -26.558662 13.215397 1.897647 -2.374541 -15.681042 26.130341 1.377342 0.488913 60.618616 12.658476 10.996372 -12.807617 25.216310 -5.002308 12.970423 0.911546 -15.074726 
-0.858124 1.881512 0.971265 51.863037 3.767620 85.138738 10.796101 6.505296 5.915732 -6.141999 2.602356 15.162429 2.864247 8.879823 -23.262632 0.000000 -0.000000 0.000000 -8.806582 -7.586052 -10.704686 2.261453 -9.894873 20.715379 2.265208 -4.932110 -11.622934 0.000000 -0.000000 0.000000 -5.873542 0.507199 6.182082 4.805871 -3.960899 7.672140 3.910241 -2.017405 3.305448 4.912933 -8.844372 -0.625963 3.975773 -17.122604 1.158555 -22.547539 1.666371 4.431199 -66.206158 -10.697943 14.077279 5.794548 -27.390374 13.163698 0.647145 -3.471748 -16.212746 26.550760 1.481508 0.361663 60.367150 13.195058 11.330531 -12.985035 25.554624 -6.165871 13.760200 1.479225 -16.427209 
-0.857407 1.879787 0.969449 52.987614 3.548687 85.212813 10.739750 6.239522 5.374328 -6.428866 1.953651 16.014012 3.154491 8.790881 -23.892476 0.000000 -0.000000 0.000000 -9.381109 -7.780274 -11.551402 2.230759 -10.420919 23.151611 2.527613 -5.271459 -13.287472 0.000000 -0.000000 0.000000 -6.057750 0.850813 7.021272 4.676243 -3.665152 7.504986 3.927635 -1.896105 3.314721 5.122572 -7.210978 -0.754758 4.221378 -15.761145 0.919532 -22.485435 1.166828 4.341715 -65.570713 -10.988070 14.486901 5.365442 -29.067521 12.712745 1.994205 -3.859768 -17.835897 26.777114 1.825420 0.407026 60.095007 13.478752 11.511549 -13.186200 26.444923 -7.296808 12.964985 1.709974 -17.402320 
-0.856043 1.876394 0.967310 54.613010 3.182665 85.568634 10.792756 6.013554 4.659971 -6.960945 1.099469 16.673608 3.509475 8.553733 -24.303930 0.000000 -0.000000 0.000000 -10.069734 -8.568156 -12.404355 2.222022 -10.949477 25.472180 2.437880 -5.558374 -14.857766 0.000000 -0.000000 0.000000 -6.414619 1.138783 7.747722 4.485051 -3.427237 7.324972 3.887069 -1.914071 3.290095 4.700533 -5.580521 -1.718086 3.297628 -14.543728 1.261268 -22.036248 1.091373 4.191174 -65.397696 -10.691928 14.244398 5.962692 -30.960733 12.520508 2.644822 -2.752872 -17.716068 27.030057 2.041366 0.288942 60.194629 13.659515 11.536602 -13.520514 27.070671 -8.078972 13.358051 1.602796 -17.685115 
-0.854754 1.871549 0.965761 56.420819 2.746688 86.215721 10.837023 5.655980 3.738886 -7.361873 0.601611 17.131917 3.574955 8.291607 -24.683878 0.000000 -0.000000 0.000000 -10.662995 -9.215616 -13.207667 2.067105 -11.818366 27.450736 2.519984 -5.949514 -16.107097 0.000000 -0.000000 0.000000 -7.028909 1.426910 8.582700 4.323453 -3.218106 6.832364 3.836313 -1.799523 3.274638 4.777788 -4.831638 -2.478443 3.593402 -14.513127 1.049504 -21.436029 1.542414 4.428377 -64.544245 -10.195651 14.290672 4.984149 -34.664052 13.111300 2.975780 -3.557589 -20.102788 27.020357 1.980912 0.366532 60.702144 13.371055 11.815225 -14.201575 28.507563 -8.387030 13.379592 1.928319 -17.595257 
-0.852947 1.862578 0.964266 59.494821 2.253627 87.319265 11.080538 5.409256 2.201961 -7.539681 -0.544607 17.666669 3.361558 7.668445 -24.925892 0.000000 -0.000000 0.000000 -11.207720 -10.423215 -14.169912 1.478088 -13.414169 29.990214 2.944279 -6.904718 -17.345659 0.000000 -0.000000 0.000000 -7.883539 1.964311 10.084019 4.147009 -3.108514 5.575368 3.738301 -2.082953 3.204718 4.269611 -4.014974 -3.583444 3.562394 -14.914392 0.628340 -19.863209 2.828410 5.053487 -62.634941 -8.455680 14.125774 1.166147 -41.334297 16.901860 4.518904 -3.602479 -22.064031 26.637542 0.813015 -0.172742 61.864288 11.912424 12.285180 -14.253388 31.809380 -8.674850 11.291467 1.849359 -17.341290 
-0.851874 1.852212 0.963309 62.286732 2.038996 88.709298 12.017494 5.284792 0.558951 -8.038270 -1.454754 17.833051 2.648421 7.463432 -24.870920 0.000000 -0.000000 0.000000 -11.180676 -11.070953 -15.552889 0.920413 -15.184609 32.480402 3.139523 -8.154493 -18.057950 0.000000 -0.000000 0.000000 -8.871958 2.351389 11.219746 4.171175 -2.991343 4.355706 3.751595 -2.336920 3.008935 4.807305 -4.352121 -4.195174 5.083306 -16.421808 -0.762827 -18.409946 3.888395 6.234032 -60.214480 -6.317283 14.129044 -2.911081 -47.688664 21.582736 6.155072 -3.837486 -23.414145 25.996738 -0.585611 -0.470851 63.035216 9.507015 12.508762 -13.769844 35.634530 -7.901755 8.320513 2.168202 -18.193758 
